<svg width="20" height="23" viewBox="0 0 20 23" fill="none" xmlns="http://www.w3.org/2000/svg">
<path d="M9.50762 18.5971H17.1643C17.3899 18.5971 17.6063 18.5075 17.7659 18.3479C17.9254 18.1884 18.015 17.972 18.015 17.7464V15.9343C18.0194 15.7364 17.9547 15.5432 17.8321 15.388C17.7094 15.2327 17.5364 15.125 17.3429 15.0835C15.3862 14.522 14.9949 12.1825 14.6121 7.51192C14.3994 4.95969 12.9106 2.40747 9.50762 2.40747C6.10466 2.40747 4.61586 4.95969 4.40317 7.51192C4.02034 12.1825 3.629 14.522 1.6723 15.0835C1.47881 15.125 1.30585 15.2327 1.18318 15.388C1.06051 15.5432 0.995809 15.7364 1.00021 15.9343V17.7464C1.00021 17.972 1.08984 18.1884 1.24939 18.3479C1.40893 18.5075 1.62532 18.5971 1.85095 18.5971H9.50762Z" stroke="#BBBBBB" stroke-width="2" stroke-linecap="round" stroke-linejoin="round"/>
<path d="M9.50741 22C9.05615 22 8.62337 21.8207 8.30428 21.5016C7.98519 21.1825 7.80593 20.7498 7.80593 20.2985V18.597H11.2089V20.2985C11.2089 20.7498 11.0296 21.1825 10.7105 21.5016C10.3915 21.8207 9.95867 22 9.50741 22Z" stroke="#BBBBBB" stroke-width="2" stroke-linecap="round" stroke-linejoin="round"/>
<circle cx="13.5" cy="3.5" r="3.5" fill="white"/>
<circle cx="13.5" cy="3.5" r="2.5" fill="#FF7E7E"/>
</svg>
