<svg width="26" height="24" viewBox="0 0 26 24" fill="none" xmlns="http://www.w3.org/2000/svg">
<path fill-rule="evenodd" clip-rule="evenodd" d="M9.91997 19.4939C9.4834 19.4936 9.05655 19.6255 8.69342 19.8729C8.33029 20.1202 8.04719 20.472 7.87994 20.8836C7.71268 21.2953 7.66878 21.7483 7.7538 22.1854C7.83881 22.6225 8.04891 23.024 8.35753 23.3392C8.66615 23.6544 9.05941 23.8691 9.48758 23.9561C9.91574 24.0432 10.3596 23.9986 10.7629 23.8281C11.1663 23.6576 11.511 23.3688 11.7536 22.9983C11.9961 22.6278 12.1256 22.1921 12.1255 21.7465C12.1255 21.1493 11.8931 20.5766 11.4796 20.1542C11.066 19.7318 10.505 19.4943 9.91997 19.4939Z" fill="#BBBBBB"/>
<path fill-rule="evenodd" clip-rule="evenodd" d="M18.8481 19.4939C18.4116 19.4939 17.9848 19.626 17.6219 19.8735C17.2589 20.121 16.976 20.4728 16.8089 20.8845C16.6419 21.2961 16.5981 21.7491 16.6833 22.1862C16.7684 22.6232 16.9786 23.0246 17.2873 23.3397C17.596 23.6547 17.9892 23.8693 18.4174 23.9562C18.8455 24.0431 19.2893 23.9985 19.6926 23.828C20.0958 23.6574 20.4405 23.3687 20.683 22.9982C20.9255 22.6277 21.0549 22.1921 21.0549 21.7465C21.055 21.4506 20.998 21.1577 20.8872 20.8843C20.7763 20.6109 20.6138 20.3626 20.4088 20.1534C20.2039 19.9442 19.9605 19.7782 19.6927 19.6651C19.4249 19.5519 19.1379 19.4938 18.8481 19.4939Z" fill="#BBBBBB"/>
<path fill-rule="evenodd" clip-rule="evenodd" d="M22.373 11.7744H12.4751C12.4751 11.7744 11.7252 11.9475 11.7252 12.7873C11.7252 13.6313 12.4751 13.8765 12.4751 13.8765H21.7654L21.1216 16.0941H9.43088L8.60833 9.40635H23.059L22.3728 11.7762L22.373 11.7744ZM24.4679 7.14792H8.56813C8.49296 7.16875 8.42022 7.19781 8.35116 7.23459L8.34096 7.14792C8.34096 7.14792 8.10154 5.0645 7.96622 4.20425C7.83151 3.33818 5.71412 2.25709 1.16236 0.0672061C0.0918313 -0.391146 -0.803375 1.60748 1.16236 2.65377L4.75197 4.36447C4.75197 4.36447 5.58696 4.8597 5.6586 5.52327C5.73024 6.18996 7.18674 17.2113 7.18674 17.2113C7.18674 17.2113 7.24491 18.7455 8.61038 18.7455H21.6047C22.7512 18.7455 22.9741 17.5227 22.9741 17.5227L25.6887 9.29488C25.6887 9.29488 26.4935 7.1475 24.4683 7.1475L24.4679 7.14792Z" fill="#BBBBBB"/>
</svg>
