<svg width="28" height="27" viewBox="0 0 28 27" fill="none" xmlns="http://www.w3.org/2000/svg">
<path d="M21.9091 4.09094H25.0454C25.3227 4.09094 25.5886 4.2011 25.7847 4.39716C25.9807 4.59322 26.0909 4.85912 26.0909 5.1364V23.9546C26.0909 24.2318 25.9807 24.4977 25.7847 24.6938C25.5886 24.8899 25.3227 25 25.0454 25H3.09089C2.81362 25 2.54772 24.8899 2.35166 24.6938C2.1556 24.4977 2.04544 24.2318 2.04544 23.9546V5.1364C2.04544 4.85912 2.1556 4.59322 2.35166 4.39716C2.54772 4.2011 2.81362 4.09094 3.09089 4.09094H21.9091Z" stroke="#2DC0FF" stroke-width="2.5" stroke-linecap="round" stroke-linejoin="round"/>
<path d="M8.31816 2V6.18182" stroke="#2DC0FF" stroke-width="2.5" stroke-linecap="round" stroke-linejoin="round"/>
<path d="M19.8182 2V6.18182" stroke="#2DC0FF" stroke-width="2.5" stroke-linecap="round" stroke-linejoin="round"/>
<path d="M2.04544 9.31818H26.0909" stroke="#2DC0FF" stroke-width="2.5" stroke-linecap="round" stroke-linejoin="round"/>
</svg>
