<svg width="55" height="55" viewBox="0 0 55 55" fill="none" xmlns="http://www.w3.org/2000/svg">
<rect width="55" height="55" rx="16" fill="#DBDAF7"/>
<path fill-rule="evenodd" clip-rule="evenodd" d="M12.0012 24.8905H14.5832V19.6757C14.5865 18.2972 15.1286 16.9761 16.091 16.0013C17.0534 15.0264 18.3577 14.4772 19.7188 14.4737H35.1571C37.9985 14.4737 40.3078 16.8132 40.3078 19.6757V24.8923H42.8772V27.4933H12L12.0012 24.8905ZM17.1519 24.8905H37.7415V19.6757C37.739 18.9842 37.4657 18.322 36.9816 17.8344C36.4976 17.3468 35.8423 17.0736 35.1595 17.0747H19.7188C19.0383 17.0765 18.3861 17.3511 17.9048 17.8385C17.4236 18.3259 17.1524 18.9864 17.1507 19.6757L17.1519 24.8905ZM40.309 30.1077V35.3091C40.3079 36.6923 39.7649 38.0186 38.7993 38.9968C37.8336 39.9749 36.5241 40.525 35.1583 40.5263H19.7188C16.8925 40.5263 14.5832 38.1868 14.5832 35.3091V30.1095H17.1507V35.3109C17.1496 36.0024 17.4194 36.6661 17.9008 37.1563C18.3823 37.6466 19.0361 37.9234 19.7188 37.9259H35.1571C35.8419 37.9259 36.4987 37.6504 36.9829 37.16C37.4671 36.6696 37.7391 36.0045 37.7391 35.3109V30.1095L40.309 30.1077Z" fill="#5A6CF3"/>
</svg>
