<svg width="27" height="27" viewBox="0 0 27 27" fill="none" xmlns="http://www.w3.org/2000/svg">
<path d="M13.5 27C20.9558 27 27 20.9558 27 13.5C27 6.04416 20.9558 0 13.5 0C6.04416 0 0 6.04416 0 13.5C0 20.9558 6.04416 27 13.5 27Z" fill="#5CE1CD"/>
<path d="M21.535 7.17035C21.1787 6.81443 20.6957 6.6145 20.1921 6.6145C19.6885 6.6145 19.2055 6.81443 18.8492 7.17035L11.1452 15.5424L8.15051 12.5477C7.97423 12.371 7.76487 12.2309 7.53439 12.1352C7.30391 12.0396 7.05683 11.9903 6.80729 11.9902C6.55775 11.9901 6.31064 12.0392 6.08009 12.1347C5.84954 12.2301 5.64006 12.3701 5.46365 12.5466C5.28723 12.7231 5.14733 12.9326 5.05195 13.1632C4.95657 13.3938 4.90758 13.6409 4.90778 13.8905C4.90797 14.14 4.95736 14.3871 5.0531 14.6175C5.14885 14.848 5.28908 15.0573 5.46577 15.2335L10.2366 20.0045C10.7275 20.4953 11.531 20.5198 12.0255 20.0326C12.029 20.0292 12.0324 20.0258 12.0357 20.0223L13.8309 18.2282L21.535 9.85617C21.891 9.49988 22.0909 9.01687 22.0909 8.51326C22.0909 8.00965 21.891 7.52664 21.535 7.17035Z" fill="white"/>
</svg>
