<svg width="29" height="25" viewBox="0 0 29 25" fill="none" xmlns="http://www.w3.org/2000/svg">
<g clip-path="url(#clip0_11_227)">
<path d="M16.9923 1.43985L28.5808 20.4883C29.7571 22.4206 28.3167 24.8551 25.9884 24.8684L3.04726 24.9998C0.718658 25.0131 -0.751565 22.5962 0.400561 20.6496L11.7529 1.4698C12.9052 -0.477025 15.8158 -0.493692 16.9923 1.43985Z" fill="#F08F5F"/>
<path d="M14.7808 21.8741C15.6914 21.7547 16.329 20.9477 16.2049 20.0717C16.0808 19.1956 15.242 18.5822 14.3314 18.7016C13.4208 18.8209 12.7832 19.6279 12.9073 20.504C13.0314 21.3801 13.8702 21.9935 14.7808 21.8741Z" fill="white"/>
<path d="M16.1925 15.4734C16.1097 16.3695 15.4574 17.0787 14.5383 17.084C13.6191 17.0893 12.9315 16.3577 12.8645 15.4925L11.9877 8.29283C11.9172 6.96749 13.0904 5.88491 14.469 5.87742C15.8476 5.86993 17.0188 6.94334 16.9796 8.26457L16.1925 15.4734Z" fill="white"/>
</g>
<defs>
<clipPath id="clip0_11_227">
<rect width="29" height="25" fill="white"/>
</clipPath>
</defs>
</svg>
